<?xml version="1.0" standalone="no"?>
<!DOCTYPE svg PUBLIC "-//W3C//DTD SVG 20010904//EN"
 "http://www.w3.org/TR/2001/REC-SVG-20010904/DTD/svg10.dtd">
<svg version="1.0" xmlns="http://www.w3.org/2000/svg"
 width="300.000000pt" height="300.000000pt" viewBox="0 0 300.000000 300.000000"
 preserveAspectRatio="xMidYMid meet">
<metadata>
Created by potrace 1.10, written by Peter Selinger 2001-2011
</metadata>
<g transform="translate(0.000000,300.000000) scale(0.100000,-0.100000)"
fill="#000000" stroke="none">
<path d="M1065 2670 c-4 -6 -4 -34 0 -63 l6 -52 -55 -24 c-72 -30 -151 -90
-199 -147 -50 -62 -104 -175 -119 -248 -7 -36 -20 -67 -34 -81 -66 -66 -22
-195 67 -195 27 0 29 -2 29 -40 0 -126 105 -290 232 -363 43 -25 45 -34 19
-86 -18 -35 -24 -39 -73 -44 -88 -11 -207 -76 -291 -161 -117 -118 -177 -239
-197 -399 -13 -106 -11 -418 2 -434 8 -10 178 -13 789 -13 l778 0 6 21 c5 14
13 19 25 16 29 -7 41 7 46 54 10 92 15 109 30 109 8 0 32 9 53 19 l37 20 58
-46 58 -46 59 59 c32 32 59 62 59 67 0 5 -18 32 -40 60 -26 32 -38 56 -34 66
3 9 13 34 20 57 l15 41 72 9 72 9 0 85 0 85 -71 14 -71 13 -22 54 -23 54 41
51 c23 28 41 57 41 63 0 16 -103 116 -119 116 -7 0 -35 -18 -62 -41 l-49 -41
-54 23 c-57 23 -66 36 -66 97 0 62 -13 72 -90 72 -97 0 -98 -1 -106 -80 l-6
-68 -44 -17 c-24 -9 -60 -28 -80 -41 l-37 -25 -61 30 c-34 17 -90 37 -126 44
-59 12 -67 17 -82 48 -26 50 -23 63 23 88 62 35 145 126 180 196 17 35 36 96
42 134 9 58 15 71 30 71 35 0 79 31 94 67 19 48 10 92 -27 128 -19 18 -30 39
-30 56 0 47 -39 154 -78 215 -52 81 -148 165 -228 200 l-65 29 6 43 c12 84 16
82 -175 82 -104 0 -171 -4 -175 -10z m280 -90 c-5 -33 -35 -446 -35 -477 0
-10 -18 -13 -70 -13 -38 0 -70 3 -70 8 0 4 -9 120 -20 257 -11 138 -20 252
-20 255 0 3 49 5 110 5 l109 0 -4 -35z m-262 -217 c4 -65 10 -153 13 -195 l7
-78 -172 0 c-197 0 -186 -8 -147 101 23 66 80 152 132 200 32 29 132 89 150
89 7 0 13 -43 17 -117z m393 88 c118 -68 212 -198 237 -328 l7 -33 -172 0
-171 0 6 68 c4 37 10 124 13 195 5 81 11 127 18 127 6 0 34 -13 62 -29z m282
-437 c25 -17 29 -56 8 -73 -19 -16 -1032 -16 -1052 0 -20 16 -18 66 4 78 11 7
196 11 517 11 437 0 503 -2 523 -16z m-104 -186 c-30 -177 -132 -299 -293
-353 -81 -26 -217 -18 -293 19 -74 35 -156 110 -191 173 -24 45 -57 149 -57
180 0 10 84 13 420 13 l420 0 -6 -32z m-414 -433 c47 0 98 2 113 5 26 5 30 1
43 -35 8 -22 16 -44 17 -49 4 -18 -116 -59 -173 -60 -53 -1 -180 38 -180 55 0
4 7 20 15 35 8 16 15 37 15 47 0 16 5 17 33 10 17 -4 70 -8 117 -8z m800 -29
c0 -70 12 -91 62 -105 23 -7 58 -21 76 -32 18 -10 38 -19 44 -19 7 0 34 18 60
41 47 40 50 40 69 24 26 -25 25 -29 -21 -84 l-41 -48 31 -64 c16 -35 30 -71
30 -80 0 -9 6 -21 13 -27 9 -8 84 -20 130 -22 4 0 7 -13 7 -29 0 -28 -3 -30
-47 -36 -90 -12 -92 -12 -103 -58 -7 -23 -20 -57 -31 -75 -27 -46 -24 -62 17
-117 l36 -47 -20 -21 -21 -20 -43 35 c-63 51 -65 51 -101 30 -17 -11 -55 -28
-84 -37 -47 -16 -52 -20 -58 -54 -3 -20 -5 -56 -4 -80 2 -28 -2 -45 -12 -52
-27 -17 -36 -8 -23 25 3 9 10 13 15 10 5 -3 9 42 9 104 l0 109 38 6 c121 20
234 176 217 302 -13 103 -70 186 -157 229 -71 36 -174 36 -241 3 l-46 -24 -27
28 -26 27 43 22 c24 13 61 28 83 34 l41 12 9 67 9 67 34 0 c32 0 33 -1 33 -44z
m-992 -89 c15 -24 15 -29 2 -37 -21 -13 -63 39 -48 58 15 17 26 12 46 -21z
m430 21 c13 -16 -30 -74 -47 -64 -16 10 -14 37 6 58 19 21 27 22 41 6z m-446
-155 c35 -65 88 -165 117 -223 30 -58 58 -111 64 -118 27 -34 48 -7 171 223
123 229 124 230 155 228 18 0 34 -3 37 -5 2 -2 4 -196 4 -431 l1 -427 -346 -3
-345 -2 0 432 0 432 23 4 c53 10 54 9 119 -110z m107 61 c64 -20 161 -18 223
6 29 11 54 20 54 20 1 0 -32 -62 -72 -137 -40 -76 -79 -150 -85 -165 -6 -16
-14 -28 -18 -28 -3 0 -32 51 -63 113 -32 61 -72 136 -89 166 -25 44 -28 53
-13 46 11 -4 39 -14 63 -21z m-315 -399 l-2 -416 -157 -2 -158 -2 6 195 c6
208 19 285 61 368 40 79 112 167 182 221 37 28 67 51 68 51 0 0 0 -187 0 -415z
m892 370 c114 -88 207 -229 234 -355 13 -59 24 -377 15 -413 -6 -22 -9 -22
-160 -22 l-155 0 0 418 c0 229 2 417 4 417 2 0 30 -20 62 -45z m332 -46 c95
-20 172 -113 172 -209 0 -46 -28 -120 -58 -153 -18 -20 -71 -49 -109 -61 -45
-14 -23 19 28 42 115 53 140 201 49 292 -50 50 -118 68 -180 46 -42 -14 -59
-10 -60 15 0 9 57 30 102 38 4 0 29 -4 56 -10z m33 -135 c52 -49 48 -130 -9
-174 -38 -31 -50 -25 -61 33 -6 28 -23 76 -37 106 -19 43 -22 56 -12 63 24 16
89 1 119 -28z"/>
</g>
</svg>
